<svg preserveAspectRatio="none" overflow="visible" style="display: block;" width="254" height="32" viewBox="0 0 254 32" fill="none" xmlns="http://www.w3.org/2000/svg">
<g id="Logo">
<g id="Vector">
<path d="M15.3651 1.0361C15.2629 1.28781 15.0074 1.86147 14.8031 2.31221C14.2819 3.44783 13.5358 5.67809 13.3365 6.70834C13.1219 7.79128 13.0095 9.15519 13.0555 10.0391C13.1986 12.7025 14.3176 15.4713 15.9272 17.1279C16.6579 17.8831 17.8025 18.9075 17.9149 18.9075C17.9302 18.9075 17.8127 18.7436 17.6441 18.5387C17.174 17.9592 16.4842 16.9523 16.0396 16.1913C14.849 14.1601 14.2563 11.9942 14.2563 9.65275C14.2563 8.18347 14.4147 7.12395 14.8031 6.00004C15.0381 5.31516 15.2016 4.94637 15.6973 3.9688L16.1061 3.16099L16.474 3.70539C17.266 4.87613 17.7718 5.73662 18.0171 6.33956C18.15 6.67322 18.15 6.67322 18.3799 5.98248C18.7887 4.75905 18.2164 3.00295 17.0003 1.72098C16.6477 1.35805 15.7075 0.585365 15.6053 0.585365C15.5797 0.585365 15.4724 0.790245 15.3651 1.0361Z" fill="#1B1F14"/>
<path d="M6.89821 4.80004C6.89821 4.82345 6.93398 4.95809 6.97997 5.09858C7.12815 5.58444 7.2048 6.08785 7.30699 7.24103C7.54204 9.91618 7.65446 10.4664 8.21143 11.7191C8.88081 13.2235 9.86189 14.3826 11.4613 15.5533C12.3963 16.2323 14.7417 17.5026 14.9308 17.4323C14.9563 17.4206 14.5936 17.1514 14.1183 16.8294C12.9329 16.0216 12.1664 15.4362 11.6197 14.9152C10.3422 13.6918 9.37646 12.0294 9.07498 10.525C8.90125 9.64105 8.80416 7.8264 8.91147 7.44591C8.96257 7.2703 9.00855 7.28201 9.86189 7.67421C10.843 8.12494 11.7832 8.77471 12.381 9.42447L12.6825 9.74642L12.6467 9.51227C12.4832 8.41763 11.7218 7.18835 10.7101 6.38639C10.2298 6.0059 9.22827 5.4498 8.58444 5.2098C8.05813 5.01077 6.89821 4.72979 6.89821 4.80004Z" fill="#1B1F14"/>
<path d="M2.27386 15.1318C2.25853 14.9386 2.23298 14.6928 2.21765 14.5816L2.19211 14.3825L2.41183 14.5991C3.69438 15.8635 4.99738 16.5074 7.0975 16.9231C7.79243 17.0577 9.029 17.1806 10.6028 17.2684C12.289 17.3621 13.3519 17.567 14.7162 18.0528C16.3002 18.6148 17.5572 19.3875 18.7631 20.5289C19.4427 21.1728 20.572 22.4841 21.2925 23.4733C21.6348 23.9416 22.059 24.5036 22.2378 24.7319C22.621 25.2119 22.6721 25.2412 21.2056 24.1407C19.0391 22.5192 17.8894 21.8285 16.4126 21.2841C15.0585 20.7806 13.8322 20.5875 11.5481 20.5172C9.97431 20.4645 9.09032 20.3533 8.15523 20.0723C7.16393 19.7797 6.0551 19.165 5.16089 18.4099C4.84408 18.1348 4.57327 17.924 4.55794 17.9357C4.51706 17.9884 4.93095 19.2762 5.18133 19.8733C6.1133 22.0439 7.61015 24.109 9.56042 25.0539C12.2432 26.3537 15.521 25.6026 17.7054 25.2939C15.5144 26.5974 13.2624 27.0715 10.7817 26.6168C7.85375 26.0724 5.77407 24.4392 4.20536 21.4538C3.20895 19.5572 2.43738 17.0284 2.27386 15.1318Z" fill="#1B1F14"/>
<path d="M2.01837 22.5602C1.78842 22.6012 1.48184 22.6831 1.32854 22.7417C1.03218 22.847 0.291257 23.286 0.107305 23.4558L0 23.5612L0.342355 24.088C1.90595 26.4705 3.68927 27.5358 6.58651 27.811C7.35809 27.8812 8.17055 27.8344 9.06476 27.6529C9.48376 27.571 10.3984 27.2958 10.5159 27.2256C10.5568 27.2022 10.0714 27.1612 9.43778 27.1436C6.96975 27.0617 5.34995 26.5641 3.85789 25.4285C3.15785 24.8958 2.28918 23.93 2.21765 23.6139C2.16655 23.3797 2.30962 23.1104 2.65198 22.8002C2.82571 22.648 2.96368 22.5075 2.96368 22.5017C2.96368 22.4548 2.41182 22.4958 2.01837 22.5602Z" fill="#1B1F14"/>
<path d="M19.7493 25.1768C19.2792 25.2763 18.7223 25.5222 17.8791 25.9963C16.6477 26.6929 15.0994 27.5066 14.7009 27.6646C14.0519 27.928 13.6636 27.9983 12.8 28.0041C12.008 28.01 11.7832 27.9749 11.3591 27.77C11.2824 27.729 11.3642 27.969 11.6605 28.6539C11.9365 29.2861 12.2584 29.7954 12.7183 30.3281C13.357 31.0539 14.0264 31.5047 14.9461 31.8208C15.3651 31.9671 15.4878 31.9788 16.2747 31.9847C17.2149 31.9905 17.3477 31.9671 18.2675 31.6276C18.9777 31.37 19.4172 31.1359 20.0201 30.7085C21.0472 29.9768 21.6502 29.169 22.2838 27.6588C22.5495 27.0324 22.8101 26.2831 22.7794 26.2539C22.7692 26.2422 22.3042 26.6988 21.7421 27.2607C19.8209 29.1807 19.0493 29.7485 17.874 30.0998C17.2455 30.2871 16.1316 30.2871 15.5593 30.0998C15.0534 29.93 14.5987 29.6432 14.2461 29.2744C13.9855 28.9934 13.9804 28.9876 14.103 28.9583C15.3345 28.6656 16.2849 28.2617 17.4346 27.53C19.6676 26.1134 20.526 25.7622 22.1969 25.5807C22.5035 25.5514 22.7641 25.5105 22.7743 25.5046C22.7948 25.4753 22.0998 25.2997 21.5633 25.1944C21.083 25.1065 20.1428 25.0948 19.7493 25.1768Z" fill="#1B1F14"/>
<path d="M32.1457 1.05074C32.2479 1.30245 32.5033 1.87611 32.7077 2.32685C33.2289 3.46246 33.975 5.69273 34.1742 6.72298C34.3889 7.80592 34.5013 9.16983 34.4553 10.0537C34.3122 12.7172 33.1932 15.486 31.5836 17.1426C30.8529 17.8977 29.7083 18.9221 29.5959 18.9221C29.5805 18.9221 29.6981 18.7582 29.8667 18.5533C30.3368 17.9738 31.0266 16.967 31.4712 16.206C32.6617 14.1748 33.2545 12.0089 33.2545 9.6674C33.2545 8.19812 33.0961 7.13859 32.7077 6.01468C32.4727 5.3298 32.3092 4.96101 31.8135 3.98344L31.4047 3.17563L31.0368 3.72003C30.2448 4.89077 29.7389 5.75126 29.4937 6.3542C29.3608 6.68786 29.3608 6.68786 29.1309 5.99712C28.7221 4.7737 29.2944 3.01758 30.5105 1.73562C30.8631 1.37269 31.8033 0.6 31.9055 0.6C31.931 0.6 32.0384 0.804884 32.1457 1.05074Z" fill="#1B1F14"/>
<path d="M40.6126 4.81468C40.6126 4.83809 40.5768 4.97273 40.5308 5.11322C40.3826 5.59907 40.306 6.10249 40.2038 7.25568C39.9688 9.93082 39.8563 10.4811 39.2994 11.7338C38.63 13.2382 37.6489 14.3972 36.0495 15.5679C35.1145 16.247 32.7691 17.5172 32.58 17.447C32.5545 17.4353 32.9172 17.166 33.3925 16.844C34.5779 16.0362 35.3444 15.4509 35.8911 14.9299C37.1686 13.7065 38.1343 12.044 38.4358 10.5396C38.6095 9.6557 38.7066 7.84105 38.5993 7.46056C38.5482 7.28494 38.5022 7.29665 37.6489 7.68885C36.6678 8.13958 35.7276 8.78935 35.1298 9.43911L34.8283 9.76106L34.8641 9.52691C35.0276 8.43227 35.7889 7.20299 36.8007 6.40103C37.281 6.02054 38.2825 5.46444 38.9264 5.22444C39.4527 5.02541 40.6126 4.74443 40.6126 4.81468Z" fill="#1B1F14"/>
<path d="M45.2369 15.1465C45.2523 14.9533 45.2778 14.7074 45.2931 14.5962L45.3187 14.3972L45.099 14.6138C43.8164 15.8782 42.5134 16.5221 40.4133 16.9377C39.7184 17.0723 38.4818 17.1953 36.908 17.2831C35.2218 17.3767 34.1589 17.5816 32.7946 18.0675C31.2106 18.6294 29.9536 19.4021 28.7477 20.5436C28.0681 21.1875 26.9388 22.4987 26.2183 23.488C25.876 23.9563 25.4518 24.5182 25.273 24.7465C24.8898 25.2265 24.8387 25.2558 26.3052 24.1553C28.4717 22.5338 29.6214 21.8431 31.0982 21.2987C32.4522 20.7953 33.6786 20.6021 35.9627 20.5319C37.5365 20.4792 38.4205 20.368 39.3556 20.087C40.3469 19.7943 41.4557 19.1797 42.3499 18.4245C42.6667 18.1494 42.9375 17.9387 42.9529 17.9504C42.9937 18.0031 42.5798 19.2909 42.3295 19.888C41.3975 22.0586 39.9006 24.1236 37.9504 25.0685C35.2675 26.3683 31.9898 25.6173 29.8054 25.3085C31.9964 26.612 34.2483 27.0861 36.7291 26.6314C39.657 26.087 41.7367 24.4539 43.3054 21.4685C44.3018 19.5719 45.0734 17.0431 45.2369 15.1465Z" fill="#1B1F14"/>
<path d="M45.4924 22.5748C45.7224 22.6158 46.029 22.6978 46.1823 22.7563C46.4786 22.8617 47.2195 23.3007 47.4035 23.4704L47.5108 23.5758L47.1684 24.1026C45.6048 26.4851 43.8215 27.5505 40.9243 27.8256C40.1527 27.8959 39.3402 27.849 38.446 27.6676C38.027 27.5856 37.1124 27.3105 36.9949 27.2402C36.954 27.2168 37.4394 27.1758 38.073 27.1583C40.541 27.0763 42.1608 26.5788 43.6529 25.4431C44.3529 24.9105 45.2216 23.9446 45.2931 23.6285C45.3442 23.3943 45.2012 23.1251 44.8588 22.8148C44.6851 22.6626 44.5471 22.5221 44.5471 22.5163C44.5471 22.4695 45.099 22.5104 45.4924 22.5748Z" fill="#1B1F14"/>
<path d="M27.7615 25.1914C28.2316 25.2909 28.7885 25.5368 29.6316 26.011C30.8631 26.7075 32.4114 27.5212 32.8099 27.6793C33.4589 27.9427 33.8472 28.0129 34.7108 28.0188C35.5028 28.0246 35.7276 27.9895 36.1517 27.7846C36.2284 27.7437 36.1466 27.9837 35.8503 28.6685C35.5743 29.3007 35.2524 29.81 34.7925 30.3427C34.1538 31.0686 33.4844 31.5193 32.5647 31.8354C32.1457 31.9817 32.023 31.9934 31.2361 31.9993C30.2959 32.0052 30.1631 31.9817 29.2433 31.6422C28.533 31.3847 28.0936 31.1505 27.4906 30.7232C26.4636 29.9915 25.8606 29.1837 25.227 27.6734C24.9613 27.0471 24.7007 26.2978 24.7314 26.2685C24.7416 26.2568 25.2066 26.7134 25.7686 27.2754C27.6899 29.1954 28.4615 29.7632 29.6368 30.1144C30.2653 30.3017 31.3792 30.3017 31.9515 30.1144C32.4574 29.9446 32.9121 29.6578 33.2647 29.289C33.5253 29.0081 33.5304 29.0022 33.4078 28.9729C32.1763 28.6802 31.2259 28.2763 30.0762 27.5446C27.8432 26.128 26.9848 25.7768 25.3139 25.5953C25.0073 25.5661 24.7467 25.5251 24.7365 25.5192C24.716 25.49 25.411 25.3144 25.9475 25.209C26.4278 25.1212 27.368 25.1095 27.7615 25.1914Z" fill="#1B1F14"/>
<path d="M20.664 3.86344C21.4458 2.69855 21.7983 2.24782 22.8612 1.00683C23.3415 0.45662 23.7503 -1.90735e-06 23.7605 -1.90735e-06C23.7707 -1.90735e-06 24.1693 0.47126 24.6496 1.02147C25.7124 2.26246 26.065 2.71319 26.8468 3.87808C28.1447 5.7981 29.0542 7.56591 29.6776 9.38056C30.4492 11.6284 30.5361 13.4255 30.0047 15.9953C29.8769 16.5982 29.7338 17.0314 29.4426 17.7045C29.0747 18.5475 28.8294 18.9982 28.3082 19.7943C27.925 20.3797 26.8111 21.7319 26.714 21.7319C26.6935 21.7319 26.8213 21.4509 27.0052 21.0997C27.833 19.5367 28.4462 17.7397 28.6863 16.2001C28.9469 14.4967 28.8192 12.7523 28.3133 11.0489C27.7359 9.11715 26.3154 6.58835 24.3379 3.97174L23.7605 3.2049L23.1729 3.9571C21.1954 6.5737 19.7749 9.10251 19.1975 11.0342C18.6916 12.7377 18.5639 14.4821 18.8245 16.1855C19.0646 17.725 19.6778 19.5221 20.5056 21.085C20.6895 21.4363 20.8173 21.7172 20.7968 21.7172C20.6997 21.7172 19.5858 20.365 19.2026 19.7797C18.6814 18.9836 18.4361 18.5328 18.0682 17.6899C17.7769 17.0167 17.6339 16.5835 17.5061 15.9806C16.9747 13.4108 17.0616 11.6137 17.8332 9.36592C18.4565 7.55127 19.3661 5.78345 20.664 3.86344Z" fill="#1B1F14"/>
<path d="M3.77358 9.82092C3.72248 10.7517 3.81956 12.0863 3.98308 12.7361C4.22324 13.6785 4.30799 14.1496 4.87729 14.8291C5.65398 15.7562 6.67933 16.0652 7.63486 16.2116C9.02547 16.4012 10.4774 16.6066 11.8777 16.5C11.8777 16.4766 11.8419 16.4532 11.8011 16.4532C11.6631 16.4532 10.4725 15.7215 9.87466 15.2707C8.87825 14.5156 7.86075 13.4535 6.64506 12.2116C5.50833 11.0503 4.77265 10.0445 3.84 9.13603C3.82467 9.13603 3.79912 9.44628 3.77358 9.82092Z" fill="#1B1F14"/>
<path d="M43.9544 9.76251C44.0055 10.6932 43.9084 12.0279 43.7449 12.6777C43.5047 13.6201 43.42 14.0912 42.8507 14.7707C42.074 15.6978 41.0486 16.0068 40.0931 16.1532C38.7025 16.3428 37.2505 16.5482 35.8503 16.4416C35.8503 16.4182 35.886 16.3948 35.9269 16.3948C36.0649 16.3948 37.2554 15.663 37.8533 15.2123C38.8497 14.4572 39.8672 13.3951 41.0829 12.1532C42.2196 10.9919 42.9553 9.9861 43.888 9.07762C43.9033 9.07762 43.9288 9.38787 43.9544 9.76251Z" fill="#1B1F14"/>
</g>
<g id="Sri Badrika Ashram">
<path d="M55.079 21.9518V20.0257C56.3135 20.8154 57.6077 21.2584 58.8422 21.2584C60.5545 21.2584 61.7293 20.3531 61.7293 19.0626C61.7293 15.9807 54.8201 17.4254 54.8201 12.8604C54.8201 10.6645 56.7316 9.14286 59.5191 9.14286C60.6939 9.14286 61.9284 9.39326 63.123 9.89406V11.7817C61.9682 11.0883 60.7934 10.7416 59.6784 10.7416C58.0059 10.7416 56.871 11.5891 56.871 12.8218C56.871 15.8266 63.7801 14.4013 63.7801 19.0241C63.7801 21.297 61.8089 22.8571 59.0014 22.8571C57.6873 22.8571 56.3533 22.549 55.079 21.9518Z" fill="#1B1F14"/>
<path d="M68.6345 10.9535V15.9615H70.7649C72.4375 15.9615 73.5923 14.9213 73.5923 13.4575C73.5923 11.9936 72.4375 10.9535 70.7649 10.9535H68.6345ZM66.6235 22.626V9.374H71.0636C73.7715 9.374 75.683 11.0498 75.683 13.4575C75.683 15.3066 74.5679 16.7319 72.7162 17.2713L76.1011 22.626H73.8511L70.6853 17.5409H68.6345V22.626H66.6235Z" fill="#1B1F14"/>
<path d="M78.8734 22.626V9.374H80.9242V22.626H78.8734Z" fill="#1B1F14"/>
<path d="M91.6755 16.6549V21.0851H94.4829C95.9962 21.0851 96.9718 20.1605 96.9718 18.87C96.9718 17.5602 95.9962 16.6549 94.4829 16.6549H91.6755ZM91.6755 10.9149V15.1332H94.1644C95.5581 15.1332 96.5338 14.2665 96.5338 13.0144C96.5338 11.7817 95.5581 10.9149 94.1644 10.9149H91.6755ZM89.6844 22.626V9.374H94.5427C96.8922 9.374 98.5448 10.8186 98.5448 12.8411C98.5448 14.2279 97.7484 15.3836 96.4541 15.8459C98.047 16.2889 99.0227 17.5217 99.0227 19.0433C99.0227 21.1429 97.3103 22.626 94.8812 22.626H89.6844Z" fill="#1B1F14"/>
<path d="M100.222 22.626L105.658 9.374H107.37L112.806 22.626H110.775L109.361 19.1011H103.686L102.253 22.626H100.222ZM106.514 11.9551L104.264 17.5795H108.764L106.514 11.9551Z" fill="#1B1F14"/>
<path d="M114.904 22.626V9.374H119.503C123.406 9.374 126.173 12.1092 126.173 16C126.173 19.8909 123.406 22.626 119.503 22.626H114.904ZM116.955 10.992V21.008H119.384C122.151 21.008 124.063 18.947 124.063 16C124.063 13.053 122.151 10.992 119.384 10.992H116.955Z" fill="#1B1F14"/>
<path d="M131.031 10.9535V15.9615H133.162C134.834 15.9615 135.989 14.9213 135.989 13.4575C135.989 11.9936 134.834 10.9535 133.162 10.9535H131.031ZM129.02 22.626V9.374H133.46C136.168 9.374 138.08 11.0498 138.08 13.4575C138.08 15.3066 136.965 16.7319 135.113 17.2713L138.498 22.626H136.248L133.082 17.5409H131.031V22.626H129.02Z" fill="#1B1F14"/>
<path d="M141.27 22.626V9.374H143.321V22.626H141.27Z" fill="#1B1F14"/>
<path d="M147.103 22.626V9.374H149.114V15.1525L154.849 9.374H157.338L150.986 15.8844L157.537 22.626H154.988L149.114 16.6164V22.626H147.103Z" fill="#1B1F14"/>
<path d="M158.36 22.626L163.796 9.374H165.508L170.944 22.626H168.913L167.5 19.1011H161.825L160.391 22.626H158.36ZM164.652 11.9551L162.402 17.5795H166.902L164.652 11.9551Z" fill="#1B1F14"/>
<path d="M175.335 22.626L180.771 9.374H182.483L187.919 22.626H185.888L184.474 19.1011H178.8L177.366 22.626H175.335ZM181.627 11.9551L179.377 17.5795H183.877L181.627 11.9551Z" fill="#1B1F14"/>
<path d="M189.42 21.9518V20.0257C190.654 20.8154 191.948 21.2584 193.183 21.2584C194.895 21.2584 196.07 20.3531 196.07 19.0626C196.07 15.9807 189.161 17.4254 189.161 12.8604C189.161 10.6645 191.072 9.14286 193.86 9.14286C195.035 9.14286 196.269 9.39326 197.464 9.89406V11.7817C196.309 11.0883 195.134 10.7416 194.019 10.7416C192.347 10.7416 191.212 11.5891 191.212 12.8218C191.212 15.8266 198.121 14.4013 198.121 19.0241C198.121 21.297 196.15 22.8571 193.342 22.8571C192.028 22.8571 190.694 22.549 189.42 21.9518Z" fill="#1B1F14"/>
<path d="M200.964 22.626V9.374H203.015V15.0754H210.024V9.374H212.074V22.626H210.024V16.6934H203.015V22.626H200.964Z" fill="#1B1F14"/>
<path d="M217.87 10.9535V15.9615H220C221.673 15.9615 222.827 14.9213 222.827 13.4575C222.827 11.9936 221.673 10.9535 220 10.9535H217.87ZM215.859 22.626V9.374H220.299C223.007 9.374 224.918 11.0498 224.918 13.4575C224.918 15.3066 223.803 16.7319 221.951 17.2713L225.336 22.626H223.086L219.92 17.5409H217.87V22.626H215.859Z" fill="#1B1F14"/>
<path d="M226.396 22.626L231.832 9.374H233.544L238.98 22.626H236.949L235.535 19.1011H229.861L228.427 22.626H226.396ZM232.688 11.9551L230.438 17.5795H234.938L232.688 11.9551Z" fill="#1B1F14"/>
<path d="M241.078 22.626V9.374H242.89L247.549 15.7111L252.188 9.374H254V22.626H252.049V12.5907L248.166 17.8876H246.892L243.029 12.5907V22.626H241.078Z" fill="#1B1F14"/>
</g>
</g>
</svg>
